<svg xmlns="http://www.w3.org/2000/svg" width="207.34" height="63.86" viewBox="0 0 207.34 63.86">
  <defs>
    <style>
      .cls-1, .cls-5, .cls-6 {
        fill: none;
        stroke-width: 4px;
      }

      .cls-1 {
        stroke: #72a572;
      }

      .cls-1, .cls-4, .cls-5, .cls-6 {
        stroke-miterlimit: 10;
      }

      .cls-2 {
        fill: #72a572;
      }

      .cls-3 {
        font-size: 53.94px;
        font-family: Roboto-Regular, Roboto;
      }

      .cls-3, .cls-4 {
        fill: #ef5925;
      }

      .cls-4, .cls-5 {
        stroke: #e55028;
      }

      .cls-4 {
        stroke-width: 3px;
      }

      .cls-6 {
        stroke: #f13422;
        opacity: 0.06;
      }
    </style>
  </defs>
  <title>Asset 1</title>
  <g id="Layer_2" data-name="Layer 2">
    <g id="Layer_1-2" data-name="Layer 1">
      <g>
        <path class="cls-1" d="M52.89,20.68a80.78,80.78,0,0,1-14.56-6.05c-8.68-4.67-11.75-8.42-18-9-7.57-.7-14.28,3.77-19,8"/>
        <path class="cls-2" d="M52.07,20.39C49.3,22,47.1,26,46.2,29a29.44,29.44,0,0,1,14.14-6.33c-4.18-3.15-6.89-7.87-9-12.62C50.73,13.28,50.46,17.38,52.07,20.39Z"/>
      </g>
      <g>
        <path class="cls-1" d="M51.72,36.7C41.32,38.8,35,42.92,30.94,46.63c-5,4.56-7.79,9.82-15.25,13a30.36,30.36,0,0,1-15.35,2"/>
        <path class="cls-2" d="M50.87,36.93C49,39.5,48.6,44.07,49,47.15A29.44,29.44,0,0,1,59.33,35.63c-5.1-1.19-9.49-4.41-13.33-7.89C46.77,31,48.18,34.83,50.87,36.93Z"/>
      </g>
      <text class="cls-3" transform="translate(59.14 46.15) scale(1.24 1)">Jpex</text>
      <line class="cls-4" x1="59.33" y1="4.63" x2="206.92" y2="4.13"/>
      <line class="cls-5" x1="59.33" y1="61.13" x2="207.33" y2="60.63"/>
      <rect class="cls-6" x="80.33" y="13.63" width="104" height="33"/>
    </g>
  </g>
</svg>
